<svg width="8" height="24" viewBox="0 0 8 24" fill="none" xmlns="http://www.w3.org/2000/svg">
<g clip-path="url(#clip0_23_16)">
<path d="M7.09273 19.0909V22.9091C7.09273 23.2045 6.98477 23.4602 6.76886 23.6761C6.55295 23.892 6.29727 24 6.00182 24H1.63818C1.34273 24 1.08704 23.892 0.871136 23.6761C0.655226 23.4602 0.547272 23.2045 0.547272 22.9091V19.0909C0.547272 18.7955 0.655226 18.5398 0.871136 18.3239C1.08704 18.108 1.34273 18 1.63818 18H6.00182C6.29727 18 6.55295 18.108 6.76886 18.3239C6.98477 18.5398 7.09273 18.7955 7.09273 19.0909ZM7.60409 1.09091L7.12682 14.1818C7.11545 14.4773 6.99898 14.733 6.77739 14.9489C6.55579 15.1648 6.29727 15.2727 6.00182 15.2727H1.63818C1.34273 15.2727 1.0842 15.1648 0.862613 14.9489C0.641022 14.733 0.524545 14.4773 0.513181 14.1818L0.0359083 1.09091C0.0245447 0.795455 0.123977 0.539773 0.334204 0.323864C0.544431 0.107955 0.797272 0 1.09273 0H6.54727C6.84273 0 7.09557 0.107955 7.30579 0.323864C7.51602 0.539773 7.61545 0.795455 7.60409 1.09091Z" fill="#42FF00"/>
</g>
<defs>
<clipPath id="clip0_23_16">
<rect width="7.64" height="24" fill="white"/>
</clipPath>
</defs>
</svg>
