<svg width="76" height="81" viewBox="0 0 76 81" fill="none" xmlns="http://www.w3.org/2000/svg">
<path d="M45.3103 56.1755C45.531 55.9657 45.742 55.7463 45.9435 55.5269C45.7804 55.5269 45.6269 55.5079 45.4638 55.5079C45.3007 55.4983 45.128 55.4983 44.9649 55.4888C44.7731 55.4697 44.5812 55.4506 44.3989 55.4316C44.2358 55.4125 44.0727 55.403 43.9096 55.3743C43.7178 55.3457 43.5355 55.3076 43.3436 55.279C43.1901 55.2504 43.027 55.2217 42.8735 55.1931C42.6817 55.155 42.4994 55.0978 42.3075 55.0501C42.154 55.0119 42.0005 54.9738 41.847 54.9356C41.6552 54.8784 41.4633 54.8116 41.281 54.7544C41.1371 54.7067 40.9932 54.659 40.8493 54.6114C40.6478 54.5351 40.456 54.4588 40.2641 54.3729C40.1298 54.3157 39.9955 54.268 39.8708 54.2108C39.6597 54.1154 39.4487 54.0105 39.2472 53.9056C39.1417 53.8484 39.0265 53.8007 38.921 53.7434C38.614 53.5813 38.307 53.4001 38 53.2094C37.7218 53.381 37.4436 53.5432 37.1654 53.6958C37.127 53.7148 37.079 53.7434 37.0407 53.7625C36.7529 53.9151 36.4651 54.0582 36.1677 54.1917C36.1581 54.2012 36.1389 54.2012 36.1293 54.2108C34.2394 55.0596 32.1863 55.5174 30.0566 55.5365C30.2676 55.7558 30.4787 55.9752 30.6993 56.1946C30.7569 56.2518 30.8241 56.3186 30.8816 56.3758C31.2078 56.681 31.534 56.9862 31.8794 57.2723C31.9753 57.3486 32.0712 57.4249 32.1672 57.5012C32.4166 57.711 32.666 57.9113 32.925 58.1116C33.0498 58.207 33.1841 58.3023 33.3184 58.3977C33.5486 58.5694 33.7789 58.7315 34.0187 58.8937C34.1626 58.989 34.3065 59.0844 34.4504 59.1798C34.6903 59.3324 34.9301 59.485 35.1699 59.628C35.3138 59.7139 35.4577 59.7997 35.6016 59.8856C35.8703 60.0382 36.1293 60.1812 36.4075 60.3147C36.5322 60.3815 36.6665 60.4483 36.7912 60.515C37.1942 60.7153 37.5971 60.9061 38.0096 61.0777C38.4221 60.9061 38.8251 60.7153 39.228 60.515C39.3527 60.4483 39.487 60.3815 39.6117 60.3147C39.8804 60.1717 40.149 60.0286 40.4176 59.8856C40.5615 59.7997 40.7054 59.7139 40.8493 59.628C41.0891 59.485 41.329 59.3324 41.5688 59.1798C41.7127 59.0844 41.8566 58.989 42.0005 58.8937C42.2404 58.7315 42.4706 58.5694 42.7009 58.3977C42.8352 58.3023 42.9599 58.207 43.0942 58.1116C43.3532 57.9113 43.6027 57.711 43.8521 57.5012C43.948 57.4249 44.044 57.3486 44.1399 57.2723C44.4757 56.9862 44.8114 56.681 45.128 56.3758C45.1856 56.2995 45.2431 56.2327 45.3103 56.1755Z" fill="#333333"/>
<path d="M38 51.3877C38.9114 50.7201 39.746 49.938 40.4847 49.051C40.667 48.8221 40.8493 48.5932 41.022 48.3548C41.0795 48.2785 41.1275 48.1927 41.1851 48.1164C41.3002 47.9542 41.4057 47.7921 41.5112 47.6299C41.5688 47.5346 41.6264 47.4392 41.6839 47.3343C41.7703 47.1817 41.8662 47.0291 41.9525 46.8765C42.0101 46.7716 42.0677 46.6667 42.1156 46.5522C42.1924 46.3996 42.2691 46.247 42.3363 46.0944C42.3842 45.98 42.4418 45.8655 42.4898 45.7606C42.5569 45.608 42.6241 45.4554 42.6816 45.3028C42.7296 45.1884 42.768 45.0739 42.816 44.9499C42.8735 44.7973 42.9215 44.6352 42.979 44.4731C43.0174 44.3586 43.0558 44.2346 43.0846 44.1202C43.1325 43.958 43.1709 43.7959 43.2093 43.6338C43.2381 43.5193 43.2669 43.4049 43.2956 43.2809C43.3052 43.2427 43.3148 43.195 43.3244 43.1569C43.3148 43.1569 43.3052 43.1474 43.2956 43.1474C42.9215 43.052 42.5377 42.9661 42.154 42.8898C42.0773 42.8708 41.9909 42.8612 41.9142 42.8422C41.5496 42.7754 41.1851 42.7182 40.8109 42.6705C40.715 42.6609 40.6286 42.6514 40.5327 42.6323C40.1681 42.5846 39.794 42.556 39.4294 42.5274C39.3527 42.5179 39.2663 42.5179 39.1896 42.5179C38.825 42.4988 38.4605 42.4893 38.0959 42.4797C38.0384 42.4797 37.9808 42.4797 37.9233 42.4797C37.5587 42.4797 37.1846 42.4988 36.82 42.5179C36.7432 42.5179 36.6569 42.5274 36.5802 42.5274C36.206 42.556 35.8415 42.5846 35.4673 42.6323C35.381 42.6419 35.285 42.6514 35.1987 42.6705C34.8341 42.7182 34.46 42.7754 34.0954 42.8422C34.0187 42.8612 33.9419 42.8708 33.8556 42.8898C33.4719 42.9661 33.0977 43.052 32.714 43.1474C32.7044 43.1474 32.6948 43.1569 32.6852 43.1569C32.6948 43.195 32.7044 43.2427 32.714 43.2809C32.7427 43.3953 32.7715 43.5193 32.8003 43.6338C32.8387 43.7959 32.8866 43.958 32.925 44.1202C32.9634 44.2346 32.9922 44.3586 33.0305 44.4731C33.0785 44.6352 33.1361 44.7878 33.1936 44.9499C33.232 45.0644 33.28 45.1788 33.3279 45.2933C33.3855 45.4459 33.4527 45.5985 33.5198 45.7511C33.5678 45.8655 33.6158 45.98 33.6733 46.0849C33.7405 46.2375 33.8172 46.3901 33.894 46.5427C33.9515 46.6476 33.9995 46.762 34.0571 46.867C34.1434 47.0196 34.2297 47.1722 34.3257 47.3248C34.3832 47.4201 34.4408 47.525 34.4984 47.6204C34.6039 47.7825 34.7094 47.9447 34.8245 48.1068C34.8821 48.1831 34.9301 48.269 34.9876 48.3453C35.1603 48.5837 35.333 48.8126 35.5249 49.0415C36.254 49.9285 37.0886 50.7201 38 51.3877Z" fill="#333333"/>
<path d="M32.3974 40.391C32.3974 40.7153 32.4166 41.03 32.4358 41.3448C32.4358 41.402 32.4454 41.4688 32.4454 41.526C32.4454 41.5737 32.455 41.6214 32.4646 41.6691C32.4933 41.6595 32.5221 41.6595 32.5509 41.65C32.925 41.5546 33.2992 41.4783 33.6733 41.402C33.7501 41.3829 33.8268 41.3734 33.9036 41.3543C34.2873 41.2876 34.6615 41.2303 35.0452 41.1731C35.1507 41.1636 35.2563 41.1445 35.3618 41.135C35.736 41.0873 36.1197 41.0587 36.4938 41.0301C36.5898 41.0205 36.6953 41.0205 36.7912 41.011C37.1558 40.9919 37.5203 40.9824 37.8849 40.9824C37.9617 40.9824 38.0384 40.9824 38.1151 40.9824C38.4797 40.9824 38.8443 40.9919 39.2088 41.011C39.3143 41.0205 39.4103 41.0205 39.5158 41.0301C39.8899 41.0587 40.2737 41.0873 40.6478 41.135C40.7534 41.1445 40.8589 41.1636 40.9644 41.1731C41.3482 41.2208 41.7319 41.278 42.1061 41.3448C42.1828 41.3543 42.2596 41.3734 42.3363 41.3925C42.7105 41.4688 43.0846 41.5451 43.4587 41.6404C43.4875 41.65 43.5163 41.65 43.5451 41.6595C43.5451 41.6118 43.5547 41.5641 43.5643 41.5165C43.5739 41.4592 43.5739 41.3925 43.5739 41.3352C43.5931 41.0205 43.6122 40.6962 43.6122 40.372C43.6122 37.3772 42.6241 34.516 40.8685 32.1888C40.3888 31.5498 39.8516 30.9585 39.2568 30.4053C38.8634 30.0429 38.4413 29.69 38.0096 29.3753C34.4792 31.9599 32.3974 36.0324 32.3974 40.391Z" fill="#333333"/>
<path d="M55.489 17.4726C55.2971 17.3963 55.1053 17.32 54.9038 17.2532C54.6256 17.1578 54.3474 17.0815 54.0691 16.9957C53.8869 16.9385 53.695 16.8812 53.5127 16.824C53.1961 16.7382 52.8795 16.6714 52.5726 16.5951C52.4095 16.557 52.256 16.5188 52.0929 16.4807C51.6132 16.3853 51.1335 16.2995 50.6443 16.2327C49.5314 16.0801 48.3994 15.9943 47.2865 15.9943C44.9457 15.9943 42.6624 16.3281 40.4655 16.9862C39.7364 17.2055 39.0073 17.463 38.2974 17.7587C38.1151 17.835 37.904 17.835 37.7218 17.7587C34.8629 16.5856 31.8313 15.9943 28.723 15.9943C27.6102 15.9943 26.4877 16.0706 25.3653 16.2327C24.876 16.2995 24.3963 16.3853 23.9167 16.4807C23.7536 16.5093 23.6001 16.557 23.437 16.5951C23.1204 16.6619 22.8038 16.7382 22.4968 16.824C22.3049 16.8717 22.1227 16.9385 21.9308 16.9957C21.6526 17.0815 21.3744 17.1578 21.0962 17.2532C20.8947 17.32 20.7028 17.3963 20.511 17.4726C20.2903 17.5584 20.0697 17.6347 19.849 17.7205C19.7435 17.9017 19.6475 18.083 19.5516 18.2546C19.4461 18.4454 19.3405 18.6266 19.2446 18.8173C19.1295 19.0367 19.0336 19.2656 18.928 19.4945C18.8417 19.6852 18.7457 19.876 18.669 20.0763C18.5731 20.3052 18.4867 20.5436 18.4004 20.7821C18.3236 20.9728 18.2469 21.1731 18.1797 21.3638C18.0934 21.6023 18.0262 21.8502 17.9495 22.0982C17.8919 22.289 17.8248 22.4893 17.7672 22.68C17.7001 22.9375 17.6425 23.195 17.5849 23.443C17.537 23.6337 17.489 23.8245 17.4506 24.0152C17.3931 24.2823 17.3547 24.5589 17.3067 24.8355C17.2779 25.0167 17.2396 25.1979 17.2204 25.3791C17.182 25.6843 17.1532 25.9895 17.1244 26.3042C17.1148 26.4568 17.0861 26.6094 17.0765 26.762C17.0477 27.2198 17.0285 27.6872 17.0285 28.1545C17.0285 29.4516 17.1532 30.7487 17.3931 32.0267C17.4506 32.3128 17.5082 32.5799 17.5657 32.8374C17.6233 33.0949 17.6905 33.3333 17.748 33.5718C18.7841 37.4058 20.8947 40.8584 23.8591 43.5479C23.9838 43.6528 24.0606 43.8054 24.0893 43.958C24.2524 44.8069 24.4731 45.6843 24.7513 46.5617C24.8568 46.9051 24.972 47.2484 25.0967 47.5822C25.135 47.6967 25.183 47.8016 25.231 47.9161C25.3173 48.1354 25.4037 48.3643 25.49 48.5837C25.5476 48.7172 25.6051 48.8412 25.6627 48.9747C25.749 49.175 25.8354 49.3657 25.9313 49.566C25.9985 49.6996 26.0656 49.8331 26.1328 49.9666C26.2287 50.1478 26.315 50.3386 26.411 50.5198C26.4877 50.6533 26.5645 50.7964 26.6412 50.9299C26.7372 51.1016 26.8331 51.2828 26.9386 51.4544C27.025 51.588 27.1113 51.731 27.1977 51.8646C27.3032 52.0362 27.4087 52.1984 27.5142 52.3605C27.6006 52.494 27.6965 52.6276 27.7925 52.7706C27.9076 52.9327 28.0131 53.0949 28.1282 53.2475C28.2242 53.381 28.3297 53.5145 28.4352 53.6481C28.5216 53.7625 28.6079 53.8674 28.6942 53.9819C28.7902 53.9914 28.8861 54.0009 28.982 54.0009C29.0492 54.0009 29.126 54.0105 29.1931 54.0105C29.4138 54.02 29.644 54.0296 29.8647 54.0296C30.1908 54.0296 30.517 54.02 30.8336 53.9914C30.9391 53.9819 31.0447 53.9723 31.1502 53.9628C31.3708 53.9437 31.5819 53.9246 31.8026 53.8865C31.9273 53.8674 32.0424 53.8483 32.1671 53.8293C32.359 53.8007 32.5604 53.7625 32.7523 53.7244C32.877 53.6957 33.0017 53.6671 33.1265 53.6385C33.3183 53.5908 33.5102 53.5431 33.6925 53.4859C33.8172 53.4478 33.9323 53.4192 34.057 53.381C34.2489 53.3238 34.4408 53.2475 34.6326 53.1807C34.7382 53.1426 34.8533 53.1044 34.9588 53.0567C35.1795 52.9709 35.3905 52.8755 35.6016 52.7801C35.6783 52.742 35.7551 52.7134 35.8318 52.6752C36.11 52.5417 36.3883 52.3986 36.6569 52.246C36.4074 52.0553 36.1676 51.8455 35.9374 51.6357C35.8702 51.5784 35.8031 51.5117 35.7359 51.4544C35.5536 51.2828 35.3809 51.1111 35.2083 50.9394C35.1411 50.8727 35.0739 50.8059 35.0068 50.7296C34.7861 50.4912 34.5655 50.2527 34.3544 49.9952C33.9227 49.4707 33.5294 48.927 33.1744 48.3548C32.1095 46.638 31.39 44.7306 31.083 42.7372C31.0351 42.4225 31.0063 42.1078 30.9679 41.793C30.9199 41.3257 30.8912 40.8488 30.8912 40.3815C30.8912 35.3553 33.3951 30.6724 37.5779 27.8493C37.8369 27.6776 38.1631 27.6776 38.4221 27.8493C42.6049 30.6819 45.1088 35.3648 45.1088 40.3815C45.1088 41.1731 45.0512 41.9647 44.9265 42.7372C44.9073 42.8612 44.8785 42.9852 44.8498 43.1187C44.8114 43.319 44.7826 43.5288 44.7346 43.7291C44.2933 45.6938 43.4491 47.5536 42.2691 49.1941C42.0676 49.4707 41.8662 49.7377 41.6455 49.9952C41.4345 50.2527 41.2138 50.4912 40.9836 50.7296C40.9164 50.7964 40.8493 50.8631 40.7821 50.9394C40.6094 51.1206 40.4271 51.2923 40.2449 51.4544C40.1777 51.5117 40.1106 51.5784 40.0434 51.6357C39.8132 51.8455 39.5733 52.0458 39.3239 52.2365C39.5925 52.3891 39.8707 52.5322 40.1489 52.6657C40.2257 52.7038 40.3024 52.7325 40.3792 52.7706C40.5902 52.866 40.8013 52.9614 41.0219 53.0472C41.1275 53.0949 41.2426 53.133 41.3481 53.1712C41.54 53.2379 41.7319 53.3047 41.9237 53.3715C42.0484 53.4096 42.1636 53.4478 42.2883 53.4764C42.4706 53.5336 42.6624 53.5813 42.8543 53.629C42.979 53.6576 43.1037 53.6862 43.2285 53.7148C43.4203 53.753 43.6218 53.7911 43.8137 53.8197C43.9384 53.8388 44.0535 53.8579 44.1782 53.877C44.3893 53.9056 44.6099 53.9246 44.821 53.9533C44.9265 53.9628 45.032 53.9723 45.1376 53.9819C45.4542 54.0009 45.7803 54.02 46.1065 54.02C46.3272 54.02 46.5478 54.0105 46.7781 54.0009C46.8452 54.0009 46.922 53.9914 46.9891 53.9914C47.0851 53.9819 47.181 53.9723 47.2769 53.9723C47.3633 53.8579 47.4496 53.753 47.5359 53.6385C47.6319 53.505 47.7374 53.3715 47.8334 53.2379C47.9485 53.0758 48.0636 52.9137 48.1787 52.7515C48.2747 52.618 48.361 52.4845 48.4569 52.351C48.5721 52.1888 48.668 52.0172 48.7735 51.8455C48.8599 51.712 48.9462 51.5784 49.0229 51.4449C49.1285 51.2732 49.2244 51.092 49.3203 50.9203C49.3971 50.7868 49.4738 50.6533 49.5506 50.5102C49.6465 50.329 49.7425 50.1383 49.8288 49.9571C49.896 49.8235 49.9631 49.69 50.0303 49.5565C50.1262 49.3562 50.2125 49.1655 50.2989 48.9652C50.3565 48.8412 50.414 48.7077 50.4716 48.5837C50.5675 48.3643 50.6538 48.1354 50.7402 47.9065C50.7786 47.8016 50.8265 47.6967 50.8649 47.5822C50.9896 47.2484 51.1047 46.9051 51.2103 46.5617C51.4885 45.6748 51.7187 44.8069 51.8722 43.958C51.901 43.7959 51.9874 43.6528 52.1025 43.5479C53.7718 42.0315 55.1724 40.2766 56.2565 38.35C56.4963 37.9208 56.7266 37.4821 56.9376 37.0434C57.1487 36.5951 57.3405 36.1469 57.5228 35.6891C57.7914 35.0024 58.0217 34.2966 58.2136 33.5813C58.2807 33.3429 58.3383 33.0949 58.3958 32.8374C58.4534 32.5799 58.511 32.3128 58.5685 32.0267C58.7412 31.1111 58.8467 30.1669 58.8947 29.2322C58.9139 28.8698 58.9235 28.5169 58.9235 28.1545C58.9235 27.6872 58.9043 27.2294 58.8755 26.762C58.8659 26.6094 58.8467 26.4473 58.8275 26.2947C58.7988 25.9895 58.7796 25.6843 58.7316 25.3886C58.7028 25.2074 58.674 25.0262 58.6453 24.845C58.5973 24.5684 58.5589 24.3014 58.511 24.0343C58.4726 23.8436 58.4246 23.6528 58.3766 23.4621C58.3191 23.2046 58.2615 22.9471 58.1944 22.6991C58.1368 22.4988 58.0792 22.308 58.0121 22.1078C57.9353 21.8598 57.8682 21.6213 57.7818 21.3829C57.7147 21.1826 57.6379 20.9919 57.5612 20.8011C57.4749 20.5627 57.3885 20.3338 57.2926 20.1049C57.2062 19.9141 57.1199 19.7234 57.024 19.5231C56.9184 19.2942 56.8225 19.0749 56.7074 18.846C56.6114 18.6552 56.5059 18.4645 56.4004 18.2832C56.3044 18.102 56.2085 17.9208 56.103 17.7492C55.9303 17.6347 55.7096 17.5489 55.489 17.4726Z" fill="#333333"/>
<path d="M2.15859 39.7902C2.22574 39.4087 2.30249 39.0176 2.37924 38.6361C2.39842 38.5217 2.4272 38.4168 2.44639 38.3119C2.54233 37.8731 2.63826 37.444 2.75339 37.0148C2.77257 36.9576 2.78217 36.9003 2.80135 36.8431C2.90688 36.4616 3.01241 36.0801 3.12753 35.6986C3.15631 35.5937 3.19469 35.4793 3.22347 35.3743C3.35778 34.9452 3.49209 34.5255 3.64558 34.1059C3.65518 34.0677 3.67436 34.0296 3.69355 33.9819C3.82786 33.5908 3.98136 33.2093 4.12526 32.8278C4.16364 32.7229 4.2116 32.618 4.24998 32.5036C4.42266 32.0839 4.59534 31.6738 4.77762 31.2637C4.78721 31.2446 4.79681 31.2256 4.8064 31.1969C4.98868 30.8059 5.17096 30.4149 5.36283 30.0238C5.41079 29.9189 5.46836 29.814 5.51632 29.7091C5.72738 29.299 5.93844 28.8984 6.15909 28.4979C7.3391 26.0944 8.92203 23.8817 10.8407 21.9361C13.2007 19.5613 15.9541 17.7015 19.0432 16.4235C20.7509 15.7177 22.5353 15.1931 24.3676 14.8784C24.6266 14.8307 24.8953 14.7926 25.1543 14.7544C26.3343 14.5923 27.5335 14.5064 28.7135 14.5064C29.9127 14.5064 31.1023 14.5923 32.2823 14.7544C33.069 14.8689 33.8364 15.0119 34.6039 15.1931C34.9877 15.2885 35.3714 15.3839 35.7456 15.4983C36.5034 15.7177 37.2517 15.9752 37.9904 16.2613C38.7291 15.9657 39.4774 15.7177 40.2353 15.4983C40.6095 15.3839 40.9932 15.2885 41.377 15.1931C42.1444 15.0119 42.9215 14.8593 43.6986 14.7544C44.869 14.5923 46.0682 14.5064 47.2674 14.5064C48.4474 14.5064 49.6466 14.5923 50.8266 14.7544C51.0856 14.7926 51.3542 14.8307 51.6133 14.8784C53.1866 15.155 54.7216 15.5746 56.2086 16.1373C56.458 16.2327 56.6978 16.3281 56.9473 16.433C59.2401 17.3867 61.3603 18.6552 63.2598 20.2289C63.893 20.7535 64.507 21.3066 65.0922 21.8979C66.3202 23.1283 67.4042 24.4635 68.3444 25.8941C68.9104 26.7525 69.4093 27.649 69.8602 28.5742C70.0808 28.9652 70.2919 29.3658 70.4933 29.7663C70.5509 29.8712 70.5989 29.9762 70.6468 30.0811C70.8387 30.4626 71.021 30.8441 71.1937 31.2351C71.2033 31.2542 71.2129 31.2828 71.2225 31.3019C71.4047 31.712 71.5774 32.1221 71.7501 32.5322C71.7885 32.6371 71.8364 32.742 71.8748 32.8469C72.0283 33.2284 72.1722 33.6099 72.3065 33.9914C72.3257 34.0296 72.3353 34.0773 72.3545 34.1154C72.4984 34.535 72.6423 34.9547 72.767 35.3839C72.7958 35.4888 72.8342 35.6032 72.8629 35.7082C72.9781 36.0896 73.0836 36.4711 73.1795 36.8526C73.1987 36.9099 73.2083 36.9671 73.2275 37.0243C73.3426 37.4535 73.4386 37.8827 73.5345 38.3214C73.5537 38.4263 73.5825 38.5408 73.6017 38.6457C73.6784 39.0272 73.7551 39.4087 73.8223 39.7902C73.8319 39.8379 73.8415 39.8951 73.8511 39.9428C74.2636 37.7492 74.4651 35.5174 74.4651 33.257C74.4651 20.0572 67.2603 7.91607 55.6521 1.50691C49.5794 1.72627 43.7466 3.25226 38.355 6.03719C38.1343 6.15164 37.8753 6.15164 37.6643 6.03719C32.2631 3.25226 26.4302 1.72627 20.3287 1.49738C8.71097 7.90653 1.50623 20.0572 1.50623 33.257C1.50623 35.5174 1.71728 37.7492 2.12981 39.9523C2.12981 39.8951 2.14899 39.8474 2.15859 39.7902Z" fill="#333333"/>
<path d="M21.0386 64.6257C20.9426 64.4635 20.8371 64.3109 20.7412 64.1488C20.4438 63.6624 20.156 63.1569 19.8778 62.661C18.7074 60.5436 17.7192 58.3119 16.9325 56.0324C16.1747 53.8293 15.6086 51.5785 15.2249 49.2895C14.8412 47.0005 14.6493 44.6734 14.6493 42.3176C14.6493 41.917 14.6589 41.5165 14.6685 41.1159V41.1064C14.6973 39.9237 14.7836 38.7506 14.9083 37.6061C14.9563 37.1388 15.0234 36.6714 15.0906 36.2041C15.1098 36.0515 15.1386 35.8989 15.1673 35.7463C15.2153 35.4316 15.2633 35.1264 15.3208 34.8116C15.3496 34.6209 15.3976 34.4397 15.4264 34.2489C15.4839 33.9724 15.5319 33.6958 15.5895 33.4287C15.6278 33.2284 15.6758 33.0377 15.7238 32.8374C15.7813 32.6085 15.8293 32.3701 15.8869 32.1412C15.8581 31.979 15.8389 31.8074 15.8101 31.6452C15.7909 31.5022 15.7621 31.3591 15.7429 31.2256C15.7142 31.0158 15.695 30.8155 15.6662 30.6056C15.647 30.4721 15.6374 30.3386 15.6182 30.2146C15.599 29.9857 15.5799 29.7568 15.5703 29.5279C15.5607 29.4135 15.5511 29.3085 15.5511 29.1941C15.5319 28.8508 15.5319 28.5169 15.5319 28.1736C15.5319 27.8112 15.5415 27.4487 15.5607 27.0863C15.5607 27.01 15.5703 26.9337 15.5703 26.867C15.5895 26.5141 15.6182 26.1612 15.6566 25.8178C15.6662 25.7511 15.6758 25.6939 15.6758 25.6271C15.7142 25.3028 15.7621 24.9786 15.8101 24.6543C15.8197 24.6066 15.8197 24.5589 15.8293 24.5112C15.8869 24.1679 15.954 23.815 16.0308 23.4716C16.0499 23.3953 16.0595 23.319 16.0787 23.2427C16.1555 22.8994 16.2418 22.556 16.3377 22.2127C16.3473 22.1745 16.3569 22.1459 16.3665 22.1078C16.4529 21.7835 16.5584 21.4688 16.6639 21.154C16.6831 21.0873 16.7023 21.0205 16.7311 20.9633C16.8462 20.6295 16.9613 20.3052 17.0956 19.9809C17.1244 19.9142 17.1532 19.8474 17.1724 19.7806C17.3067 19.4564 17.441 19.1416 17.5849 18.8269C17.5945 18.8174 17.5945 18.7983 17.6041 18.7888C17.5849 18.7983 17.5657 18.8078 17.5465 18.8174C17.4794 18.8555 17.4122 18.8937 17.3451 18.9318C17.1052 19.0653 16.8654 19.1989 16.6256 19.3419C16.5296 19.3992 16.4337 19.4564 16.3377 19.5136C16.1171 19.6471 15.8964 19.7902 15.6854 19.9332C15.6086 19.9905 15.5223 20.0382 15.436 20.0954C15.1481 20.2957 14.8603 20.496 14.5821 20.7058C14.5438 20.7344 14.5054 20.7725 14.4574 20.8012C14.2176 20.9824 13.9777 21.1731 13.7475 21.3639C13.6612 21.4306 13.5748 21.5069 13.4981 21.5737C13.3062 21.7358 13.1047 21.9075 12.9224 22.0792C12.8457 22.1459 12.7594 22.2222 12.6826 22.289C12.4236 22.5274 12.1646 22.7754 11.9151 23.0234C11.6849 23.2523 11.4642 23.4812 11.2532 23.7196C11.0325 23.958 10.8215 24.1965 10.62 24.4349C10.2938 24.8164 9.98683 25.217 9.68943 25.6176C9.22894 26.2375 8.79723 26.8765 8.40389 27.5346C8.07771 28.0782 7.77072 28.6409 7.49251 29.2132C7.32942 29.5088 7.17592 29.795 7.02242 30.0906C6.98405 30.1669 6.94567 30.2432 6.9073 30.3195C6.79218 30.5198 6.67706 30.7392 6.57153 30.9681C6.52356 31.073 6.47559 31.1874 6.41803 31.2923C6.33169 31.4831 6.23575 31.6738 6.14941 31.8646C6.09185 31.9886 6.04388 32.1126 5.98632 32.2365C5.90957 32.4082 5.83282 32.5894 5.75608 32.7611C5.69852 32.8946 5.65055 33.0186 5.60258 33.1521C5.53543 33.3238 5.45868 33.4955 5.39152 33.6767C5.34355 33.8102 5.29559 33.9437 5.24762 34.0773C5.18046 34.2489 5.11331 34.4206 5.05575 34.6018C5.00778 34.7353 4.95981 34.8784 4.92144 35.0119C4.85428 35.1836 4.79672 35.3553 4.73916 35.527C4.69119 35.67 4.65282 35.8035 4.61445 35.9466C4.55688 36.1183 4.50892 36.2899 4.46095 36.4616C4.42257 36.6047 4.3842 36.7477 4.34583 36.8908C4.29786 37.0625 4.24989 37.2342 4.20192 37.4058C4.16355 37.5489 4.13477 37.7015 4.09639 37.8446C4.05802 38.0162 4.01005 38.1879 3.97168 38.3596C3.9429 38.5122 3.90452 38.6552 3.87574 38.8078C3.83737 38.97 3.799 39.1416 3.77021 39.3133C3.74143 39.4659 3.71265 39.6185 3.68387 39.7616C3.65509 39.9332 3.61672 40.1049 3.58794 40.2766C3.55916 40.4292 3.53997 40.5818 3.52078 40.7344C3.492 40.9061 3.46322 41.0777 3.44403 41.2494C3.42485 41.402 3.40566 41.5642 3.38647 41.7168C3.36729 41.8884 3.33851 42.0601 3.32891 42.2318C3.30972 42.3844 3.30013 42.5465 3.28094 42.6991C3.26176 42.8708 3.24257 43.0425 3.23298 43.2141C3.22338 43.3763 3.21379 43.5289 3.2042 43.691C3.1946 43.8436 3.18501 43.9962 3.17542 44.1488C5.51624 51.5785 10.3226 58.1784 16.7215 62.7468C18.3236 63.8913 20.0121 64.9023 21.7677 65.7702C21.7293 65.7225 21.7005 65.6653 21.6718 65.6176C21.4511 65.2742 21.2496 64.9499 21.0386 64.6257Z" fill="#333333"/>
<path d="M72.8054 43.6719C72.7958 43.5098 72.7862 43.3476 72.7766 43.195C72.767 43.0234 72.7478 42.8612 72.7286 42.6896C72.7094 42.5274 72.6998 42.3748 72.6807 42.2127C72.6615 42.041 72.6423 41.8789 72.6231 41.7072C72.6039 41.5546 72.5847 41.3925 72.5655 41.2399C72.5463 41.0682 72.5176 40.9061 72.4888 40.7344C72.4696 40.5818 72.4408 40.4292 72.4216 40.2766C72.3929 40.1049 72.3641 39.9428 72.3353 39.7711C72.3065 39.6185 72.2777 39.4659 72.2489 39.3133C72.2202 39.1416 72.1818 38.9795 72.1434 38.8078C72.1146 38.6552 72.0859 38.5026 72.0475 38.3596C72.0091 38.1879 71.9707 38.0258 71.9228 37.8636C71.8844 37.711 71.8556 37.568 71.8172 37.4154C71.7789 37.2437 71.7309 37.0815 71.6829 36.9099C71.6446 36.7668 71.6062 36.6142 71.5678 36.4711C71.5198 36.2995 71.4719 36.1373 71.4143 35.9657C71.3663 35.8226 71.328 35.6795 71.28 35.5365C71.2224 35.3648 71.1649 35.2027 71.1169 35.031C71.0689 34.8879 71.021 34.7449 70.973 34.6113C70.9155 34.4397 70.8483 34.2775 70.7907 34.1059C70.7428 33.9723 70.6948 33.8293 70.6372 33.6958C70.5701 33.5241 70.5029 33.3524 70.4358 33.1807C70.3878 33.0472 70.3302 32.9137 70.2823 32.7897C70.2055 32.618 70.1288 32.4368 70.052 32.2651C69.9945 32.1412 69.9465 32.0172 69.8889 31.8932C69.8026 31.7024 69.7163 31.5212 69.6299 31.34C69.5819 31.2256 69.5244 31.1206 69.4764 31.0062C69.3709 30.7964 69.2654 30.5866 69.1598 30.3672C69.1215 30.2814 69.0831 30.2051 69.0351 30.1192C68.8816 29.8236 68.7281 29.5374 68.565 29.2513C68.1333 28.3643 67.6536 27.5155 67.126 26.7048C66.2434 25.3505 65.2169 24.0916 64.0657 22.9375C63.8162 22.6896 63.5572 22.4416 63.2982 22.2127C63.2214 22.1459 63.1447 22.0696 63.0583 22.0029C62.8665 21.8312 62.6746 21.669 62.4827 21.5069C62.3964 21.4402 62.3196 21.3639 62.2333 21.2971C61.9935 21.1063 61.7536 20.9156 61.5138 20.7344C61.4754 20.7058 61.437 20.6772 61.4083 20.6485C61.13 20.4387 60.8422 20.2384 60.5544 20.0477C60.4681 19.9905 60.3913 19.9428 60.305 19.8855C60.0939 19.7425 59.8733 19.609 59.6526 19.4754C59.5567 19.4182 59.4608 19.361 59.3648 19.3038C59.125 19.1607 58.8852 19.0272 58.6357 18.8937C58.5686 18.8555 58.511 18.8269 58.4438 18.7887C58.4247 18.7792 58.4055 18.7697 58.3959 18.7601C58.4055 18.7697 58.4055 18.7792 58.4151 18.7983C58.559 19.113 58.6933 19.4278 58.8276 19.752C58.8564 19.8188 58.8852 19.8855 58.9043 19.9523C59.0291 20.2766 59.1538 20.6104 59.2689 20.9347C59.2881 21.0014 59.3073 21.0682 59.336 21.1254C59.4416 21.4402 59.5375 21.7549 59.6334 22.0792C59.643 22.1173 59.6526 22.1459 59.6622 22.1841C59.7582 22.5274 59.8445 22.8708 59.9213 23.2141C59.9404 23.2904 59.9596 23.3667 59.9692 23.443C60.046 23.7864 60.1131 24.1297 60.1707 24.4826C60.1803 24.5303 60.1803 24.578 60.1899 24.6257C60.2378 24.9499 60.2858 25.2742 60.3242 25.608C60.3338 25.6748 60.3434 25.732 60.3434 25.7988C60.3817 26.1516 60.4105 26.495 60.4297 26.8479C60.4297 26.9242 60.4393 27.0005 60.4393 27.0672C60.4585 27.4297 60.4681 27.7921 60.4681 28.1545C60.4681 28.4979 60.4585 28.8317 60.4489 29.175C60.4393 29.2895 60.4297 29.4039 60.4297 29.5184C60.4201 29.7473 60.4009 29.9762 60.3817 30.1955C60.3722 30.329 60.353 30.4721 60.3338 30.6056C60.3146 30.8059 60.2954 31.0157 60.2666 31.216C60.2474 31.3591 60.2187 31.5021 60.1995 31.6452C60.1707 31.8073 60.1515 31.979 60.1227 32.1412C60.1803 32.3701 60.2282 32.6085 60.2858 32.8374C60.3338 33.0377 60.3817 33.2284 60.4201 33.4287C60.4777 33.7053 60.5256 33.9819 60.5832 34.2489C60.6216 34.4397 60.66 34.6209 60.6887 34.8116C60.7463 35.1264 60.7943 35.4316 60.8422 35.7463C60.871 35.8989 60.8902 36.0515 60.919 36.2041C60.9861 36.6714 61.0437 37.1388 61.1013 37.6061C61.2356 38.7411 61.3123 39.9237 61.3411 41.1063V41.1159C61.3603 41.5165 61.3603 41.917 61.3603 42.3176C61.3603 44.6638 61.1684 47.0005 60.7847 49.2895C60.4009 51.5784 59.8349 53.8293 59.077 56.0324C58.2904 58.3119 57.3022 60.5436 56.1318 62.6609C55.8536 63.1569 55.5658 63.6528 55.2684 64.1392C55.1725 64.3014 55.0669 64.454 54.971 64.6161C54.7695 64.9404 54.5585 65.2742 54.3474 65.5985C54.309 65.6557 54.2803 65.7129 54.2419 65.7606C55.9975 64.8927 57.686 63.8817 59.2881 62.7372C65.687 58.1688 70.5029 51.5594 72.8437 44.1202C72.8246 43.9771 72.815 43.8245 72.8054 43.6719Z" fill="#333333"/>
<path d="M51.4022 67.1245C52.208 66.0754 52.9563 64.9881 53.6566 63.8722C54.0596 63.2332 54.4433 62.5942 54.7983 61.9361C55.9207 59.8951 56.8801 57.7492 57.638 55.546C59.0962 51.3019 59.8445 46.8479 59.8445 42.3176C59.8445 41.9266 59.8445 41.5451 59.8253 41.154C59.8253 41.1445 59.8253 41.135 59.8253 41.1254C59.7965 39.9905 59.7198 38.8555 59.595 37.7683C59.5471 37.3391 59.4895 36.9099 59.4319 36.4807C59.4128 36.3376 59.384 36.2041 59.3648 36.0611C59.3264 35.8417 59.2976 35.6223 59.2593 35.403V35.4125C59.125 35.8035 58.9811 36.185 58.8276 36.557C58.7988 36.6142 58.7796 36.681 58.7508 36.7382C58.5973 37.1006 58.4342 37.4631 58.2615 37.8159C58.2328 37.8827 58.1944 37.9495 58.1656 38.0162C57.9929 38.3691 57.801 38.722 57.6092 39.0653C57.5804 39.113 57.5516 39.1607 57.5228 39.2084C57.3214 39.5613 57.1103 39.9142 56.8897 40.248C56.8801 40.2575 56.8705 40.2671 56.8705 40.2861C56.6498 40.6295 56.41 40.9633 56.1606 41.2971C56.1222 41.3448 56.0838 41.402 56.0454 41.4497C55.8056 41.7644 55.5562 42.0792 55.3067 42.3844C55.2588 42.4416 55.2108 42.4988 55.1628 42.556C54.9038 42.8612 54.6352 43.1569 54.357 43.4526C54.3186 43.5003 54.2706 43.5384 54.2323 43.5766C53.9349 43.8817 53.6375 44.1774 53.3305 44.4635C53.1674 45.2933 52.9371 46.1421 52.6685 47.0005C51.7283 49.9762 50.2413 52.7134 48.2651 55.155C45.953 58.0067 43.027 60.3243 39.7268 61.9266C39.2567 62.1555 38.7771 62.3653 38.2974 62.5656C38.2494 62.5847 38.2015 62.5942 38.1535 62.6037C38.1343 62.6037 38.1151 62.6037 38.0863 62.6133C38.0576 62.6133 38.0288 62.6228 38 62.6228C37.9041 62.6228 37.8081 62.6037 37.7122 62.5656C37.2325 62.3653 36.7528 62.1555 36.2827 61.9266C33.9323 60.7821 31.7642 59.2752 29.8743 57.4631C29.1164 56.7382 28.4065 55.9657 27.7445 55.155C26.7756 53.9628 25.9313 52.7039 25.2022 51.3782C25.0007 51.0062 24.7993 50.6343 24.617 50.2432C24.4539 49.8903 24.2908 49.5374 24.1373 49.1846C23.8303 48.4693 23.5617 47.7444 23.3315 47.0005C23.1972 46.5713 23.0724 46.1517 22.9573 45.7225C22.8422 45.3028 22.7463 44.8832 22.6695 44.4635C22.3625 44.1774 22.0555 43.8817 21.7677 43.5766C21.7294 43.5289 21.6814 43.4907 21.643 43.4526C21.3648 43.1664 21.0962 42.8612 20.8467 42.556C20.7988 42.4988 20.7508 42.4416 20.7028 42.3844C20.4438 42.0792 20.204 41.7644 19.9641 41.4497C19.9258 41.402 19.8874 41.3448 19.849 41.2971C19.5996 40.9633 19.3693 40.6295 19.1391 40.2766C19.1295 40.2671 19.1295 40.2575 19.1199 40.248C18.8993 39.9046 18.6882 39.5518 18.4771 39.1989C18.4484 39.1512 18.4196 39.1035 18.4004 39.0558C18.2085 38.7125 18.0167 38.3596 17.844 37.9972C17.8152 37.9304 17.7768 37.8636 17.748 37.8064C17.5753 37.4535 17.4123 37.0911 17.2588 36.7287C17.23 36.6714 17.2108 36.6047 17.182 36.5475C17.0285 36.166 16.8846 35.7845 16.7503 35.403V35.3934C16.7119 35.6128 16.6736 35.8226 16.6448 36.042C16.6256 36.185 16.5968 36.3186 16.5776 36.4616C16.5201 36.8908 16.4625 37.32 16.4145 37.7492C16.3858 38.0258 16.3666 38.3024 16.3378 38.5789C16.261 39.4087 16.2035 40.2575 16.1843 41.1064C16.1843 41.1159 16.1843 41.1254 16.1843 41.135C16.1651 41.526 16.1651 41.9075 16.1651 42.2985C16.1651 46.8288 16.9038 51.2828 18.3716 55.527C19.1295 57.7301 20.0793 59.876 21.2113 61.917C22.2186 63.7387 23.3603 65.4745 24.617 67.0959C28.1954 71.7501 32.8291 75.6509 38.0288 78.3882C43.1901 75.67 47.8238 71.7787 51.4022 67.1245Z" fill="#333333"/>
<path d="M74.3115 44.4349C75.434 40.8393 76 37.0815 76 33.257C76 19.4468 68.4211 6.74297 56.2277 0.0953743C56.1126 0.0286123 55.9783 0 55.844 0C49.5602 0.200286 43.5643 1.72628 38 4.53028C32.4357 1.72628 26.4302 0.200286 20.1656 0C20.0313 0 19.897 0.0286123 19.7819 0.0953743C7.57889 6.73343 0 19.4468 0 33.257C0 37.072 0.575612 40.8393 1.69806 44.454C4.12522 52.2461 9.15223 59.1702 15.8485 63.958C18.2373 65.6652 20.8276 67.0959 23.5329 68.1927C27.3128 73.0567 32.1863 77.1102 37.6642 79.9237C37.7698 79.9809 37.8945 80.0095 38.0096 80.0095C38.1247 80.0095 38.2494 79.9809 38.355 79.9237C43.8137 77.1102 48.6968 73.0567 52.4766 68.1927C55.1916 67.0863 57.7723 65.6557 60.1611 63.9485C66.8574 59.1607 71.8844 52.227 74.3115 44.4349ZM20.3191 1.49738C26.4206 1.71674 32.2535 3.24273 37.6546 6.0372C37.8753 6.15165 38.1343 6.15165 38.3454 6.0372C43.7369 3.25227 49.5698 1.72628 55.6809 1.49738C67.2891 7.90653 74.4938 20.0572 74.4938 33.2475C74.4938 35.5079 74.2828 37.7396 73.8798 39.9332C73.8702 39.8856 73.8606 39.8283 73.851 39.7806C73.7839 39.3991 73.7071 39.0176 73.6304 38.6361C73.6112 38.5312 73.5824 38.4168 73.5632 38.3119C73.4673 37.8827 73.3714 37.444 73.2562 37.0148C73.2371 36.9576 73.2275 36.9003 73.2083 36.8431C73.1123 36.4616 72.9972 36.0801 72.8917 35.6986C72.8629 35.5937 72.8245 35.4793 72.7958 35.3743C72.6614 34.9547 72.5271 34.5255 72.3832 34.1059C72.364 34.0677 72.3545 34.02 72.3353 33.9819C72.201 33.6004 72.0571 33.2189 71.9036 32.8374C71.8652 32.7325 71.8172 32.6276 71.7788 32.5227C71.6158 32.1125 71.4431 31.7024 71.2512 31.2923C71.2416 31.2732 71.232 31.2446 71.2224 31.2256C71.0497 30.8345 70.8675 30.453 70.6756 30.0715C70.6276 29.9666 70.5701 29.8617 70.5221 29.7568C70.3206 29.3562 70.1096 28.9557 69.8889 28.5646C69.438 27.6395 68.9296 26.743 68.3731 25.8846C67.433 24.454 66.3489 23.1092 65.1209 21.8884C64.5357 21.2971 63.9217 20.7439 63.2886 20.2194C61.3794 18.6552 59.2689 17.3772 56.976 16.4235C56.7362 16.3185 56.4867 16.2232 56.2373 16.1278C54.7599 15.5651 53.2154 15.1454 51.642 14.8689C51.383 14.8212 51.1144 14.783 50.8553 14.7449C49.6753 14.5827 48.4761 14.4969 47.2961 14.4969C46.0874 14.4969 44.8978 14.5827 43.7273 14.7449C42.9407 14.8593 42.1732 15.0024 41.4057 15.1836C41.022 15.279 40.6382 15.3743 40.2641 15.4888C39.5062 15.7082 38.7579 15.9657 38.0192 16.2518C37.2805 15.9561 36.5322 15.7082 35.7743 15.4888C35.3906 15.3743 35.0164 15.279 34.6327 15.1836C33.8652 15.0024 33.0881 14.8498 32.311 14.7449C31.1406 14.5827 29.951 14.4969 28.7422 14.4969C27.5622 14.4969 26.363 14.5827 25.183 14.7449C24.924 14.783 24.6554 14.8212 24.3964 14.8689C22.564 15.1836 20.7796 15.7082 19.072 16.4139C15.9828 17.6919 13.2295 19.5517 10.8695 21.9266C8.94118 23.8627 7.36784 26.0849 6.18783 28.4883C5.96718 28.8889 5.75612 29.2895 5.54506 29.6996C5.4875 29.8045 5.43954 29.9094 5.39157 30.0143C5.1997 30.4053 5.00783 30.7964 4.83514 31.1874C4.82555 31.2065 4.81596 31.2256 4.80636 31.2542C4.62408 31.6643 4.44181 32.0839 4.27872 32.494C4.23075 32.599 4.19238 32.7039 4.154 32.8183C4.0005 33.1998 3.8566 33.5813 3.72229 33.9723C3.7127 34.0105 3.69351 34.0486 3.67432 34.0963C3.53042 34.516 3.38652 34.9452 3.25221 35.3648C3.21383 35.4697 3.18505 35.5842 3.15627 35.6891C3.04115 36.0706 2.93562 36.4521 2.83009 36.8336C2.81091 36.8908 2.80131 36.948 2.78213 37.0052C2.667 37.4344 2.57107 37.8732 2.47513 38.3023C2.45595 38.4072 2.42716 38.5217 2.40798 38.6266C2.33123 39.0081 2.25448 39.3896 2.18733 39.7806C2.17773 39.8283 2.16814 39.8856 2.15855 39.9332C1.74602 37.7396 1.53497 35.4983 1.53497 33.238C1.50619 20.0572 8.71093 7.90653 20.3191 1.49738ZM56.7458 18.8269C56.8609 19.0463 56.9568 19.2752 57.0624 19.5041C57.1487 19.6948 57.2446 19.8856 57.331 20.0858C57.4269 20.3147 57.5133 20.5532 57.5996 20.7821C57.6763 20.9728 57.7531 21.1731 57.8202 21.3639C57.9066 21.6023 57.9737 21.8503 58.0505 22.0887C58.1081 22.289 58.1752 22.4797 58.2328 22.68C58.2999 22.9375 58.3575 23.1855 58.415 23.443C58.463 23.6338 58.511 23.8245 58.5494 24.0153C58.6069 24.2823 58.6453 24.5589 58.6837 24.8259C58.7124 25.0072 58.7508 25.1884 58.77 25.3696C58.8084 25.6748 58.8372 25.98 58.8659 26.2756C58.8755 26.4282 58.9043 26.5904 58.9139 26.743C58.9427 27.2008 58.9619 27.6681 58.9619 28.1354C58.9619 28.4979 58.9523 28.8507 58.9331 29.2132C58.8851 30.1478 58.7796 31.0825 58.6069 32.0076C58.5494 32.2938 58.4918 32.5608 58.4342 32.8183C58.3767 33.0758 58.3095 33.3238 58.252 33.5622C58.0601 34.2775 57.8298 34.9833 57.5612 35.67C57.3789 36.1278 57.1871 36.5856 56.976 37.0243C56.765 37.4726 56.5347 37.9018 56.2949 38.3309C55.2108 40.2575 53.8101 42.0124 52.1409 43.5289C52.0162 43.6338 51.9394 43.7864 51.9106 43.939C51.7475 44.7878 51.5269 45.6557 51.2487 46.5427C51.1431 46.886 51.028 47.2294 50.9033 47.5632C50.8457 47.6872 50.7978 47.7921 50.7594 47.9065C50.6731 48.1354 50.5867 48.3548 50.4908 48.5837C50.4332 48.7172 50.3757 48.8412 50.3181 48.9652C50.2318 49.1655 50.1454 49.3658 50.0495 49.5565C49.9823 49.69 49.9152 49.8236 49.848 49.9571C49.7521 50.1383 49.6657 50.329 49.5698 50.5103C49.4931 50.6438 49.4163 50.7773 49.3396 50.9204C49.2436 51.092 49.1381 51.2732 49.0422 51.4449C48.9558 51.5784 48.8695 51.712 48.7927 51.8455C48.6872 52.0172 48.5817 52.1793 48.4761 52.351C48.3898 52.4845 48.2939 52.618 48.1979 52.7516C48.0828 52.9137 47.9773 53.0758 47.8526 53.238C47.7566 53.3715 47.6511 53.505 47.5552 53.6385C47.4688 53.753 47.3825 53.8579 47.2961 53.9723C47.2002 53.9819 47.1043 53.9914 47.0083 53.9914C46.9412 53.9914 46.8644 54.001 46.7973 54.001C46.5766 54.0105 46.3464 54.02 46.1257 54.02C45.7995 54.02 45.483 54.0105 45.1568 53.9819C45.0512 53.9723 44.9457 53.9628 44.8402 53.9533C44.6195 53.9342 44.4085 53.9151 44.1974 53.877C44.0727 53.8579 43.9576 53.8388 43.8329 53.8197C43.641 53.7911 43.4395 53.753 43.2477 53.7148C43.1229 53.6862 42.9982 53.6576 42.8735 53.629C42.6816 53.5813 42.4994 53.5336 42.3075 53.4764C42.1828 53.4382 42.0677 53.4096 41.9429 53.3715C41.7511 53.3143 41.5592 53.2475 41.3673 53.1712C41.2618 53.133 41.1467 53.0949 41.0411 53.0472C40.8205 52.9614 40.6094 52.866 40.3984 52.7706C40.3216 52.7325 40.2449 52.7039 40.1681 52.6657C39.8899 52.5322 39.6117 52.3891 39.3431 52.2365C39.5829 52.0458 39.8228 51.836 40.0626 51.6357C40.1298 51.5784 40.1969 51.5117 40.2641 51.4545C40.4464 51.2828 40.619 51.1111 40.8013 50.9394C40.8685 50.8727 40.9356 50.8059 41.0028 50.7296C41.233 50.4912 41.4537 50.2432 41.6647 49.9952C41.8758 49.7377 42.0868 49.4707 42.2883 49.1941C43.4683 47.5537 44.3125 45.6938 44.7539 43.7291C44.8018 43.5288 44.8306 43.319 44.869 43.1187C44.8882 42.9948 44.9169 42.8708 44.9457 42.7372C45.0704 41.9647 45.128 41.1731 45.128 40.3815C45.128 35.3648 42.6337 30.6819 38.4413 27.8493C38.1823 27.6776 37.8561 27.6776 37.5971 27.8493C33.4047 30.6724 30.9104 35.3553 30.9104 40.3815C30.9104 40.8488 30.9392 41.3257 30.9871 41.793C31.0159 42.1078 31.0447 42.4225 31.1022 42.7372C31.4188 44.7306 32.1288 46.6381 33.1936 48.3548C33.5486 48.927 33.9419 49.4707 34.3736 49.9952C34.5847 50.2432 34.8054 50.4912 35.026 50.7296C35.0932 50.7964 35.1603 50.8631 35.2275 50.9394C35.4002 51.1206 35.5824 51.2923 35.7551 51.4545C35.8223 51.5117 35.8894 51.5784 35.9566 51.6357C36.1868 51.8455 36.4267 52.0458 36.6761 52.2461C36.4075 52.3987 36.1293 52.5417 35.851 52.6753C35.7743 52.7134 35.6976 52.742 35.6208 52.7802C35.4097 52.8755 35.1891 52.9709 34.978 53.0567C34.8725 53.1044 34.7574 53.133 34.6519 53.1807C34.46 53.2475 34.2681 53.3143 34.0762 53.381C33.9611 53.4192 33.8364 53.4573 33.7117 53.4859C33.5198 53.5432 33.3375 53.5908 33.1457 53.6385C33.021 53.6671 32.8962 53.6958 32.7715 53.7244C32.5797 53.7625 32.3782 53.8007 32.1863 53.8293C32.0616 53.8484 31.9465 53.8674 31.8218 53.8865C31.6107 53.9151 31.3901 53.9342 31.1694 53.9628C31.0639 53.9723 30.9583 53.9819 30.8528 53.9914C30.5266 54.0105 30.21 54.0296 29.8839 54.0296C29.6632 54.0296 29.4426 54.02 29.2123 54.0105C29.1452 54.0105 29.0684 54.001 29.0013 54.001C28.9053 53.9914 28.8094 53.9819 28.7135 53.9819C28.6271 53.8674 28.5408 53.7625 28.4544 53.6481C28.3489 53.5145 28.253 53.381 28.1474 53.2475C28.0323 53.0854 27.9172 52.9328 27.8117 52.7706C27.7157 52.6371 27.6198 52.5036 27.5335 52.3605C27.4279 52.1984 27.3224 52.0267 27.2169 51.8646C27.1305 51.731 27.0442 51.5975 26.9578 51.4545C26.8523 51.2828 26.7564 51.1016 26.6604 50.9299C26.5837 50.7964 26.5069 50.6629 26.4302 50.5198C26.3343 50.3386 26.2383 50.1574 26.152 49.9666C26.0848 49.8331 26.0177 49.6996 25.9505 49.566C25.8546 49.3753 25.7682 49.175 25.6819 48.9747C25.6243 48.8412 25.5668 48.7172 25.5092 48.5837C25.4133 48.3643 25.3365 48.145 25.2502 47.9161C25.2022 47.8016 25.1638 47.6967 25.1159 47.5823C24.9912 47.2485 24.876 46.9051 24.7705 46.5618C24.4923 45.6843 24.2621 44.8069 24.1086 43.958C24.0798 43.7959 23.9934 43.6528 23.8783 43.5479C20.9139 40.8584 18.7937 37.4058 17.7672 33.5718C17.7001 33.3333 17.6425 33.0949 17.585 32.8374C17.5274 32.5799 17.4698 32.3128 17.4123 32.0267C17.1724 30.7582 17.0477 29.4516 17.0477 28.1545C17.0477 27.6872 17.0669 27.2294 17.0957 26.762C17.1053 26.6094 17.1245 26.4568 17.1437 26.3042C17.1724 25.999 17.2012 25.6843 17.2396 25.3791C17.2684 25.1979 17.2971 25.0167 17.3259 24.8355C17.3739 24.5589 17.4123 24.2918 17.4698 24.0153C17.5082 23.8245 17.5562 23.6338 17.6041 23.443C17.6617 23.1855 17.7193 22.928 17.7864 22.68C17.844 22.4797 17.9015 22.289 17.9687 22.0982C18.0454 21.8503 18.1126 21.6118 18.1989 21.3639C18.2661 21.1636 18.3428 20.9728 18.4196 20.7821C18.5059 20.5436 18.5923 20.3147 18.6882 20.0763C18.7746 19.8856 18.8609 19.6948 18.9472 19.4945C19.0528 19.2656 19.1487 19.0367 19.2638 18.8174C19.3598 18.6266 19.4653 18.4359 19.5708 18.2546C19.6668 18.0734 19.7627 17.8922 19.8682 17.7206C20.0889 17.6347 20.3095 17.5489 20.5302 17.4726C20.722 17.3963 20.9139 17.32 21.1154 17.2532C21.3936 17.1578 21.6718 17.0815 21.95 16.9957C22.1419 16.9385 22.3242 16.8813 22.516 16.824C22.823 16.7382 23.1396 16.6714 23.4562 16.5951C23.6193 16.557 23.7728 16.5188 23.9359 16.4807C24.4156 16.3853 24.8952 16.2995 25.3845 16.2327C26.4973 16.0801 27.6294 15.9943 28.7422 15.9943C31.8505 15.9943 34.8821 16.5856 37.741 17.7587C37.9233 17.835 38.1343 17.835 38.3166 17.7587C39.0265 17.463 39.7556 17.2055 40.4847 16.9862C42.6816 16.3281 44.9649 15.9943 47.3057 15.9943C48.4186 15.9943 49.541 16.0706 50.6635 16.2327C51.1527 16.2995 51.6324 16.3853 52.1121 16.4807C52.2752 16.5093 52.4287 16.557 52.5918 16.5951C52.9084 16.6714 53.2249 16.7382 53.5319 16.824C53.7238 16.8717 53.9061 16.9385 54.0884 16.9957C54.3666 17.0815 54.6544 17.1578 54.923 17.2532C55.1245 17.32 55.3163 17.3963 55.5082 17.4726C55.7289 17.5584 55.9495 17.6347 56.1702 17.7206C56.2757 17.9018 56.3716 18.0734 56.4676 18.2546C56.5443 18.4454 56.6498 18.6361 56.7458 18.8269ZM43.8425 57.4917C43.593 57.7015 43.3436 57.9018 43.0846 58.102C42.9599 58.1974 42.8255 58.2928 42.6912 58.3882C42.461 58.5598 42.2307 58.722 41.9909 58.8841C41.847 58.9795 41.7031 59.0749 41.5592 59.1702C41.3194 59.3228 41.0795 59.4754 40.8397 59.6185C40.6958 59.7043 40.5519 59.7902 40.408 59.876C40.1394 60.0286 39.8707 60.1717 39.6021 60.3052C39.4774 60.372 39.3527 60.4387 39.2184 60.5055C38.8155 60.7058 38.4125 60.8965 38 61.0682C37.5875 60.8965 37.1845 60.7058 36.7816 60.5055C36.6569 60.4387 36.5226 60.372 36.3979 60.3052C36.1293 60.1621 35.8606 60.0191 35.592 59.876C35.4481 59.7902 35.3042 59.7043 35.1603 59.6185C34.9205 59.4754 34.6806 59.3228 34.4408 59.1702C34.2969 59.0749 34.153 58.9795 34.0091 58.8841C33.7693 58.722 33.539 58.5598 33.3088 58.3882C33.1745 58.2928 33.0497 58.1974 32.9154 58.102C32.6564 57.9018 32.407 57.7015 32.1575 57.4917C32.0616 57.4154 31.9657 57.3391 31.8697 57.2628C31.534 56.9766 31.1982 56.6714 30.872 56.3662C30.8048 56.309 30.7473 56.2423 30.6897 56.185C30.4691 55.9752 30.258 55.7558 30.047 55.5269C32.1767 55.5079 34.2297 55.0501 36.1197 54.2012C36.1293 54.1917 36.1484 54.1917 36.158 54.1822C36.4554 54.0486 36.7432 53.9056 37.0311 53.753C37.0694 53.7339 37.1174 53.7053 37.1558 53.6862C37.434 53.5336 37.7218 53.3715 37.9904 53.1998C38.2878 53.3906 38.5948 53.5622 38.9114 53.7339C39.0169 53.7911 39.1224 53.8388 39.2376 53.896C39.4486 54.001 39.6501 54.1059 39.8611 54.2012C39.9955 54.2585 40.1202 54.3062 40.2545 54.3634C40.4464 54.4397 40.6382 54.5255 40.8397 54.6018C40.9836 54.659 41.1275 54.6972 41.2714 54.7449C41.4633 54.8116 41.6455 54.8784 41.8374 54.9261C41.9909 54.9738 42.1444 55.0024 42.2979 55.0405C42.4898 55.0882 42.6721 55.1359 42.8639 55.1836C43.0174 55.2217 43.1805 55.2408 43.334 55.2694C43.5259 55.3076 43.7082 55.3457 43.9 55.3648C44.0631 55.3839 44.2262 55.403 44.3893 55.422C44.5812 55.4411 44.773 55.4697 44.9553 55.4793C45.1184 55.4888 45.2911 55.4983 45.4542 55.4983C45.6173 55.5079 45.7708 55.5174 45.9339 55.5174C45.7228 55.7368 45.5117 55.9561 45.3007 56.166C45.2335 56.2232 45.176 56.2899 45.1184 56.3567C44.7922 56.6619 44.466 56.9671 44.1303 57.2532C44.0343 57.3391 43.9384 57.4154 43.8425 57.4917ZM34.978 48.3548C34.9205 48.2785 34.8725 48.1927 34.8149 48.1164C34.6998 47.9542 34.5943 47.7921 34.4888 47.6299C34.4312 47.5346 34.3736 47.4392 34.3161 47.3343C34.2297 47.1817 34.1338 47.0291 34.0475 46.8765C33.9899 46.7716 33.9323 46.6667 33.8844 46.5522C33.8076 46.3996 33.7309 46.247 33.6637 46.0944C33.6158 45.98 33.5582 45.8655 33.5102 45.7606C33.4431 45.608 33.3759 45.4554 33.3184 45.3028C33.2704 45.1884 33.232 45.0739 33.184 44.9595C33.1265 44.8069 33.0785 44.6447 33.021 44.4826C32.9826 44.3681 32.9442 44.2442 32.9154 44.1297C32.8675 43.9676 32.8291 43.8054 32.7907 43.6433C32.7619 43.5288 32.7331 43.4144 32.7044 43.2904C32.6948 43.2523 32.6852 43.2046 32.6756 43.1664C32.6852 43.1664 32.6948 43.1569 32.7044 43.1569C33.0785 43.0615 33.4623 42.9757 33.846 42.8994C33.9227 42.8803 33.9995 42.8708 34.0858 42.8517C34.4504 42.7849 34.8245 42.7277 35.1891 42.68C35.2754 42.6705 35.3714 42.6609 35.4577 42.6419C35.8223 42.5942 36.1964 42.5656 36.5706 42.537C36.6473 42.5274 36.7337 42.5274 36.8104 42.5274C37.175 42.5083 37.5395 42.4988 37.9137 42.4893C37.9712 42.4893 38.0288 42.4893 38.0863 42.4893C38.4509 42.4893 38.8155 42.4988 39.18 42.5274C39.2568 42.5274 39.3431 42.537 39.4198 42.537C39.794 42.5656 40.1585 42.5942 40.5231 42.6419C40.619 42.6514 40.7054 42.6609 40.8013 42.68C41.1659 42.7277 41.54 42.7849 41.9046 42.8517C41.9813 42.8708 42.0677 42.8803 42.1444 42.8994C42.5281 42.9757 42.9023 43.0615 43.286 43.1569C43.2956 43.1569 43.3052 43.1664 43.3148 43.1664C43.3052 43.2046 43.2956 43.2523 43.286 43.2904C43.2573 43.4049 43.2285 43.5288 43.1997 43.6433C43.1613 43.8054 43.1134 43.9676 43.075 44.1297C43.0366 44.2442 43.0078 44.3681 42.9695 44.4826C42.9215 44.6447 42.8639 44.7973 42.8064 44.9595C42.768 45.0739 42.72 45.1884 42.6721 45.3124C42.6145 45.4649 42.5473 45.6176 42.4802 45.7702C42.4322 45.8846 42.3842 45.999 42.3267 46.104C42.2595 46.2566 42.1828 46.4092 42.106 46.5618C42.0485 46.6667 42.0005 46.7716 41.9429 46.886C41.8566 47.0386 41.7703 47.1912 41.6743 47.3438C41.6168 47.4392 41.5592 47.5441 41.5016 47.6395C41.3961 47.8016 41.2906 47.9638 41.1755 48.1259C41.1179 48.2022 41.0699 48.288 41.0124 48.3643C40.8397 48.6028 40.667 48.8317 40.4751 49.0606C39.7364 49.9475 38.9018 50.7296 37.9904 51.3972C37.0694 50.7296 36.2348 49.9475 35.5057 49.0606C35.333 48.8221 35.1507 48.5932 34.978 48.3548ZM40.8589 32.1984C42.6145 34.535 43.6026 37.3867 43.6026 40.3815C43.6026 40.7058 43.5834 41.0205 43.5643 41.3448C43.5643 41.402 43.5547 41.4688 43.5547 41.526C43.5547 41.5737 43.5451 41.6214 43.5355 41.6691C43.5067 41.6595 43.4779 41.6595 43.4491 41.65C43.075 41.5546 42.7008 41.4783 42.3267 41.402C42.2499 41.3829 42.1732 41.3734 42.0964 41.3543C41.7127 41.2876 41.3385 41.2303 40.9548 41.1826C40.8493 41.1731 40.7438 41.154 40.6382 41.1445C40.2641 41.0968 39.8899 41.0682 39.5062 41.0396C39.4007 41.03 39.3047 41.03 39.1992 41.0205C38.8346 41.0014 38.4701 40.9919 38.1055 40.9919C38.0288 40.9919 37.952 40.9919 37.8753 40.9919C37.5107 40.9919 37.1462 41.0014 36.7816 41.0205C36.6761 41.03 36.5802 41.03 36.4842 41.0396C36.1101 41.0682 35.7263 41.0968 35.3522 41.1445C35.2467 41.154 35.1411 41.1731 35.0356 41.1826C34.6519 41.2303 34.2681 41.2876 33.894 41.3639C33.8172 41.3734 33.7405 41.3925 33.6637 41.4115C33.2896 41.4878 32.9154 41.5641 32.5413 41.6595C32.5125 41.6691 32.4837 41.6691 32.4549 41.6786C32.4453 41.6309 32.4453 41.5832 32.4357 41.5355C32.4262 41.4783 32.4262 41.4115 32.4262 41.3543C32.407 41.0396 32.3878 40.7153 32.3878 40.4006C32.3878 36.042 34.4696 31.9695 37.9904 29.4039C38.4317 29.7282 38.8442 30.0715 39.2376 30.434C39.842 30.968 40.3792 31.5689 40.8589 32.1984ZM16.7215 62.7372C10.3226 58.1688 5.51628 51.5689 3.17546 44.1392C3.18505 43.9866 3.19465 43.834 3.20424 43.6814C3.21383 43.5193 3.22343 43.3667 3.23302 43.2046C3.24262 43.0329 3.2618 42.8612 3.28099 42.6896C3.30018 42.537 3.30977 42.3748 3.32896 42.2222C3.34814 42.0505 3.36733 41.8789 3.38652 41.7072C3.40571 41.5546 3.42489 41.3925 3.44408 41.2399C3.46327 41.0682 3.49205 40.8965 3.52083 40.7248C3.54002 40.5722 3.5688 40.4196 3.58798 40.267C3.61676 40.0954 3.64554 39.9237 3.68392 39.752C3.7127 39.5994 3.74148 39.4468 3.77026 39.3038C3.79904 39.1321 3.83741 38.9604 3.87579 38.7983C3.90457 38.6457 3.93335 38.5026 3.97172 38.35C4.0101 38.1783 4.05807 38.0067 4.09644 37.835C4.13481 37.6919 4.1636 37.5393 4.20197 37.3963C4.24994 37.2246 4.2979 37.0529 4.34587 36.8813C4.38425 36.7382 4.42262 36.5951 4.46099 36.4521C4.50896 36.2804 4.56652 36.1087 4.61449 35.9371C4.65287 35.794 4.70083 35.6605 4.73921 35.5174C4.79677 35.3457 4.85433 35.1741 4.91189 35.0024C4.95986 34.8689 4.99823 34.7258 5.0462 34.5923C5.10376 34.4206 5.17092 34.2489 5.23807 34.0677C5.28604 33.9342 5.33401 33.8007 5.38197 33.6671C5.44913 33.4955 5.51628 33.3143 5.59303 33.1426C5.641 33.0091 5.69856 32.8851 5.74653 32.7516C5.82328 32.5703 5.90003 32.3987 5.97677 32.2175C6.03433 32.0935 6.0823 31.9695 6.13986 31.8455C6.22621 31.6547 6.32214 31.464 6.40848 31.2732C6.45645 31.1683 6.50442 31.0539 6.56198 30.949C6.6771 30.7392 6.79222 30.5198 6.90735 30.3004C6.94572 30.2241 6.98409 30.1478 7.02247 30.0715C7.17597 29.7759 7.33906 29.4802 7.49255 29.1941C7.77076 28.6218 8.07776 28.0591 8.40394 27.5155C8.79727 26.8574 9.22898 26.2184 9.68947 25.5985C9.98687 25.1979 10.2939 24.7973 10.62 24.4158C10.8215 24.1679 11.0326 23.9294 11.2532 23.7005C11.4739 23.4621 11.6945 23.2332 11.9152 23.0043C12.1646 22.7563 12.4236 22.5083 12.6827 22.2699C12.7594 22.1936 12.8362 22.1268 12.9225 22.0601C13.1144 21.8884 13.3062 21.7167 13.4981 21.5546C13.5844 21.4878 13.6708 21.4115 13.7475 21.3448C13.9778 21.154 14.2176 20.9633 14.4575 20.7821C14.4958 20.7535 14.5342 20.7153 14.5822 20.6867C14.8604 20.4769 15.1482 20.2766 15.436 20.0763C15.5127 20.0191 15.5991 19.9714 15.6854 19.9142C15.9061 19.7711 16.1171 19.628 16.3378 19.4945C16.4337 19.4373 16.5297 19.3801 16.6256 19.3228C16.8654 19.1798 17.1053 19.0463 17.3451 18.9127C17.4123 18.8746 17.4794 18.8364 17.5466 18.7983C17.5658 18.7887 17.585 18.7792 17.6041 18.7697C17.5945 18.7792 17.5945 18.7983 17.585 18.8078C17.441 19.1226 17.3067 19.4373 17.1724 19.7616C17.1436 19.8283 17.1149 19.8951 17.0957 19.9619C16.971 20.2861 16.8463 20.6104 16.7311 20.9442C16.7119 21.011 16.6928 21.0777 16.664 21.135C16.5584 21.4497 16.4625 21.7644 16.3666 22.0887C16.357 22.1268 16.3474 22.1555 16.3378 22.1936C16.2419 22.537 16.1555 22.8803 16.0788 23.2237C16.0596 23.3 16.0404 23.3763 16.0308 23.4526C15.9541 23.7959 15.8869 24.1392 15.8293 24.4921C15.8197 24.5398 15.8197 24.5875 15.8101 24.6352C15.7622 24.9595 15.7142 25.2837 15.6758 25.608C15.6662 25.6748 15.6567 25.732 15.6567 25.7988C15.6183 26.1516 15.5895 26.495 15.5703 26.8479C15.5703 26.9242 15.5607 27.0005 15.5607 27.0672C15.5415 27.4297 15.5319 27.7921 15.5319 28.1545C15.5319 28.4979 15.5415 28.8317 15.5511 29.175C15.5607 29.2895 15.5703 29.3944 15.5703 29.5088C15.5799 29.7377 15.5991 29.9666 15.6183 30.1955C15.6279 30.329 15.6471 30.4626 15.6662 30.5866C15.6854 30.7964 15.7142 31.0062 15.743 31.2065C15.7622 31.3495 15.791 31.4926 15.8101 31.6261C15.8389 31.7883 15.8581 31.9599 15.8869 32.1221C15.8293 32.351 15.7814 32.5894 15.7238 32.8183C15.6758 33.0186 15.6279 33.2093 15.5895 33.4096C15.5319 33.6862 15.484 33.9628 15.4264 34.2299C15.388 34.4206 15.3497 34.6018 15.3209 34.7926C15.2633 35.1073 15.2153 35.4125 15.1674 35.7272C15.1482 35.8798 15.1194 36.0324 15.0906 36.185C15.0235 36.6524 14.9659 37.1197 14.9084 37.587C14.774 38.722 14.6973 39.9046 14.6685 41.0873V41.0968C14.6493 41.4974 14.6493 41.8979 14.6493 42.2985C14.6493 44.6447 14.8412 46.9814 15.2249 49.2704C15.6087 51.5594 16.1747 53.8102 16.9326 56.0134C17.7193 58.2928 18.7074 60.5246 19.8778 62.6419C20.156 63.1474 20.4438 63.6433 20.7412 64.1297C20.8372 64.2918 20.9427 64.4444 21.0386 64.6066C21.2401 64.9309 21.4511 65.2647 21.6622 65.5794C21.7006 65.6271 21.7294 65.6843 21.7581 65.732C20.0121 64.8927 18.3237 63.8817 16.7215 62.7372ZM38 78.4072C32.8003 75.67 28.1762 71.7692 24.5882 67.1149C23.3411 65.4936 22.1899 63.7482 21.1825 61.9361C20.0601 59.8951 19.1007 57.7492 18.3428 55.546C16.8846 51.3019 16.1363 46.8479 16.1363 42.3176C16.1363 41.9266 16.1363 41.5451 16.1555 41.154C16.1555 41.1445 16.1555 41.135 16.1555 41.1254C16.1747 40.2766 16.2323 39.4278 16.309 38.598C16.3378 38.3214 16.357 38.0353 16.3858 37.7682C16.4337 37.3391 16.4913 36.9099 16.5489 36.4807C16.568 36.3376 16.5968 36.2041 16.616 36.061C16.6448 35.8417 16.6832 35.6223 16.7215 35.4125V35.422C16.8558 35.8131 16.9997 36.1946 17.1532 36.5665C17.182 36.6237 17.2012 36.6905 17.23 36.7477C17.3835 37.1102 17.5466 37.4726 17.7193 37.8255C17.748 37.8922 17.7864 37.959 17.8152 38.0162C17.9879 38.3691 18.1798 38.722 18.3716 39.0749C18.4004 39.1226 18.4292 39.1702 18.4484 39.2179C18.6498 39.5708 18.8609 39.9237 19.0911 40.267C19.1007 40.2766 19.1007 40.2861 19.1103 40.2957C19.3406 40.639 19.5708 40.9824 19.8202 41.3162C19.8586 41.3639 19.897 41.4211 19.9354 41.4688C20.1752 41.7835 20.4246 42.0982 20.6741 42.4034C20.722 42.4607 20.77 42.5179 20.818 42.5751C21.077 42.8803 21.3456 43.176 21.6142 43.4716C21.6526 43.5193 21.7006 43.5575 21.739 43.5956C22.0268 43.9008 22.3338 44.1965 22.6407 44.4826C22.7271 44.8927 22.823 45.3124 22.9286 45.7415C23.0437 46.1612 23.1588 46.5904 23.3027 47.0196C23.5425 47.7635 23.8112 48.4883 24.1086 49.2036C24.2621 49.5565 24.4156 49.9094 24.5882 50.2623C24.7705 50.6438 24.972 51.0157 25.1734 51.3972C25.9025 52.7229 26.7468 53.9914 27.7157 55.1741C28.3777 55.9847 29.0876 56.7573 29.8455 57.4821C31.7354 59.2942 33.9036 60.8011 36.254 61.9456C36.7241 62.1745 37.2037 62.3844 37.6834 62.5846C37.7793 62.6228 37.8753 62.6419 37.9712 62.6419C38 62.6419 38.0288 62.6323 38.0576 62.6323C38.0767 62.6323 38.0959 62.6323 38.1247 62.6228C38.1727 62.6133 38.2207 62.6037 38.2686 62.5846C38.7579 62.3844 39.228 62.1745 39.6981 61.9456C42.9886 60.3433 45.9243 58.0258 48.2363 55.1741C50.2222 52.742 51.6996 49.9952 52.6397 47.0196C52.9084 46.1612 53.1386 45.3124 53.3017 44.4826C53.6087 44.1965 53.9157 43.9008 54.2035 43.5956C54.2419 43.5575 54.2898 43.5098 54.3282 43.4716C54.6064 43.1855 54.875 42.8803 55.1341 42.5751C55.182 42.5179 55.23 42.4607 55.278 42.4034C55.537 42.0982 55.7768 41.7835 56.0167 41.4688C56.055 41.4211 56.0934 41.3639 56.1318 41.3162C56.3716 40.9824 56.6115 40.6485 56.8417 40.3052C56.8513 40.2957 56.8609 40.2861 56.8609 40.267C57.0815 39.9237 57.2926 39.5804 57.4941 39.2275C57.5228 39.1798 57.5516 39.1321 57.5804 39.0844C57.7723 38.7411 57.9641 38.3882 58.1368 38.0353C58.1656 37.9685 58.204 37.9018 58.2328 37.835C58.4055 37.4821 58.5685 37.1197 58.722 36.7573C58.7508 36.7 58.77 36.6333 58.7988 36.5761C58.9523 36.1946 59.0962 35.8131 59.2305 35.4316V35.422C59.2689 35.6414 59.3072 35.8608 59.336 36.0801C59.3552 36.2232 59.384 36.3567 59.4032 36.4998C59.4607 36.9289 59.5183 37.3581 59.5663 37.7873C59.691 38.8841 59.7677 40.0095 59.7965 41.1445C59.7965 41.154 59.7965 41.1636 59.7965 41.1731C59.8157 41.5641 59.8157 41.9456 59.8157 42.3367C59.8157 46.867 59.077 51.3209 57.6092 55.5651C56.8513 57.7682 55.9015 59.9142 54.7695 61.9552C54.4145 62.6037 54.0212 63.2523 53.6279 63.8913C52.9275 65.0072 52.1792 66.0944 51.3734 67.1435C47.8238 71.7787 43.1901 75.67 38 78.4072ZM59.2785 62.7372C57.6859 63.8817 55.9975 64.8927 54.2323 65.7606C54.2706 65.7034 54.2994 65.6462 54.3378 65.5985C54.5488 65.2742 54.7599 64.9499 54.9614 64.6161C55.0573 64.454 55.1628 64.3014 55.2588 64.1392C55.5562 63.6528 55.844 63.1569 56.1222 62.6609C57.2926 60.5436 58.2807 58.3119 59.0674 56.0324C59.8253 53.8293 60.3913 51.5784 60.7751 49.2895C61.1588 47.0005 61.3507 44.6733 61.3507 42.3176C61.3507 41.917 61.3411 41.5165 61.3315 41.1159V41.1063C61.3027 39.9237 61.2164 38.7506 61.0916 37.6061C61.0437 37.1388 60.9765 36.6714 60.9094 36.2041C60.8902 36.0515 60.8614 35.8989 60.8326 35.7463C60.7846 35.4316 60.7367 35.1264 60.6791 34.8116C60.6503 34.6209 60.6024 34.4397 60.5736 34.2489C60.516 33.9723 60.4681 33.6958 60.4105 33.4287C60.3721 33.2284 60.3242 33.0377 60.2762 32.8374C60.2186 32.6085 60.1707 32.3701 60.1131 32.1412C60.1419 31.979 60.1611 31.8073 60.1899 31.6452C60.209 31.5021 60.2378 31.3591 60.257 31.216C60.2858 31.0157 60.305 30.8155 60.3242 30.6056C60.3433 30.4721 60.3529 30.329 60.3721 30.1955C60.3913 29.9666 60.4105 29.7377 60.4201 29.5184C60.4297 29.4039 60.4393 29.2895 60.4393 29.175C60.4585 28.8317 60.4585 28.4979 60.4585 28.1545C60.4585 27.7921 60.4489 27.4297 60.4297 27.0672C60.4297 26.9909 60.4201 26.9146 60.4201 26.8479C60.4009 26.495 60.3721 26.1421 60.3338 25.7988C60.3242 25.732 60.3146 25.6748 60.3146 25.608C60.2762 25.2837 60.2282 24.9595 60.1803 24.6257C60.1707 24.578 60.1707 24.5303 60.1611 24.4826C60.1035 24.1392 60.0364 23.7864 59.9596 23.443C59.9404 23.3667 59.9308 23.2904 59.9116 23.2141C59.8349 22.8708 59.7485 22.5274 59.6526 22.1841C59.643 22.1459 59.6334 22.1173 59.6238 22.0792C59.5375 21.7549 59.432 21.4402 59.3264 21.1254C59.3072 21.0587 59.2881 20.9919 59.2593 20.9347C59.1442 20.6009 59.029 20.2766 58.8947 19.9523C58.8659 19.8856 58.8372 19.8188 58.818 19.752C58.6837 19.4278 58.5494 19.113 58.4055 18.7983C58.3959 18.7887 58.3959 18.7792 58.3863 18.7601C58.4055 18.7697 58.4246 18.7792 58.4342 18.7887C58.5014 18.8269 58.5589 18.8555 58.6261 18.8937C58.8755 19.0272 59.1154 19.1607 59.3552 19.3038C59.4511 19.361 59.5471 19.4182 59.643 19.4754C59.8637 19.609 60.0747 19.7425 60.2954 19.8856C60.3817 19.9428 60.4585 19.9905 60.5448 20.0477C60.8326 20.2384 61.1204 20.4387 61.3986 20.6485C61.437 20.6772 61.4754 20.7058 61.5042 20.7344C61.744 20.9156 61.9838 21.1063 62.2237 21.2971C62.31 21.3639 62.3868 21.4402 62.4731 21.5069C62.665 21.6691 62.8569 21.8407 63.0487 22.0029C63.1255 22.0696 63.2022 22.1459 63.2886 22.2127C63.5476 22.4511 63.8066 22.6896 64.056 22.9375C65.2073 24.0916 66.2338 25.3505 67.1164 26.7048C67.644 27.5155 68.1237 28.3643 68.5554 29.2513C68.7185 29.5374 68.872 29.8331 69.0255 30.1192C69.0639 30.2051 69.1022 30.2814 69.1502 30.3672C69.2557 30.577 69.3709 30.7868 69.4668 31.0062C69.5244 31.1206 69.5723 31.2256 69.6203 31.34C69.7066 31.5212 69.793 31.712 69.8793 31.8932C69.9369 32.0172 69.9849 32.1412 70.0424 32.2651C70.1192 32.4368 70.1959 32.6085 70.2727 32.7897C70.3302 32.9232 70.3782 33.0472 70.4262 33.1807C70.4933 33.3524 70.5605 33.5241 70.6276 33.6958C70.6756 33.8293 70.7236 33.9628 70.7811 34.1059C70.8387 34.2775 70.9058 34.4397 70.9634 34.6114C71.0114 34.7544 71.0593 34.8879 71.1073 35.031C71.1649 35.1931 71.2224 35.3648 71.2704 35.5365C71.3184 35.6795 71.3567 35.8226 71.4047 35.9657C71.4527 36.1278 71.5102 36.2995 71.5582 36.4712C71.5966 36.6142 71.6349 36.7668 71.6733 36.9099C71.7213 37.0815 71.7692 37.2437 71.8076 37.4154C71.846 37.568 71.8844 37.711 71.9132 37.8636C71.9515 38.0258 71.9995 38.1974 72.0379 38.3596C72.0762 38.5122 72.105 38.6648 72.1338 38.8078C72.1722 38.97 72.2106 39.1416 72.2393 39.3133C72.2681 39.4659 72.2969 39.6185 72.3257 39.7711C72.3545 39.9428 72.3928 40.1049 72.412 40.2766C72.4408 40.4292 72.46 40.5818 72.4792 40.7344C72.508 40.9061 72.5367 41.0682 72.5559 41.2399C72.5751 41.3925 72.5943 41.5546 72.6135 41.7072C72.6327 41.8789 72.6519 42.041 72.671 42.2127C72.6902 42.3748 72.6998 42.5274 72.719 42.6896C72.7382 42.8612 72.7478 43.0234 72.767 43.195C72.7766 43.3572 72.7862 43.5098 72.7958 43.6719C72.8053 43.8245 72.8149 43.9676 72.8245 44.1202C70.4837 51.5594 65.6774 58.1593 59.2785 62.7372Z" fill="#42FF00"/>
</svg>
